HIERARCHY
ROOT newVegas:Hips
{
	OFFSET 0.000000 96.479958 0.000000
	CHANNELS 6 Xposition Yposition Zposition Xrotation Yrotation Zrotation
	JOINT newVegas:Pelvis
	{
		OFFSET 0.000000 0.000000 0.000000
		CHANNELS 3 Xrotation Yrotation Zrotation
		JOINT newVegas:LeftUpLeg
		{
			OFFSET 18.735201 -5.666702 -4.541200
			CHANNELS 3 Xrotation Yrotation Zrotation
			JOINT newVegas:LeftLeg
			{
				OFFSET -0.021200 -31.938179 0.493100
				CHANNELS 3 Xrotation Yrotation Zrotation
				JOINT newVegas:LeftFoot
				{
					OFFSET 0.021200 -31.938179 -4.336299
					CHANNELS 3 Xrotation Yrotation Zrotation
					JOINT newVegas:LeftToeBase
					{
						OFFSET 0.943001 -26.722000 15.023500
						CHANNELS 3 Xrotation Yrotation Zrotation
						End Site
						{
							OFFSET 0.000000 30.670183 0.000000
						}
					}
				}
				JOINT newVegas:Left_PantLeg
				{
					OFFSET 0.663870 -9.044666 -1.108900
					CHANNELS 3 Xrotation Yrotation Zrotation
					End Site
					{
						OFFSET 1.415995 20.635357 0.000000
					}
				}
			}
		}
		JOINT newVegas:RightUpLeg
		{
			OFFSET -18.735201 -5.666702 -4.541200
			CHANNELS 3 Xrotation Yrotation Zrotation
			JOINT newVegas:RightLeg
			{
				OFFSET 0.018946 -31.938133 0.493100
				CHANNELS 3 Xrotation Yrotation Zrotation
				JOINT newVegas:RightFoot
				{
					OFFSET -0.018946 -31.938126 -4.336299
					CHANNELS 3 Xrotation Yrotation Zrotation
					JOINT newVegas:RightToeBase
					{
						OFFSET -0.943001 -26.722004 15.023500
						CHANNELS 3 Xrotation Yrotation Zrotation
						End Site
						{
							OFFSET 0.000000 30.670187 0.000000
						}
					}
				}
				JOINT newVegas:Right_PantLeg
				{
					OFFSET -0.661674 -9.044716 -1.108900
					CHANNELS 3 Xrotation Yrotation Zrotation
					End Site
					{
						OFFSET -1.415958 20.635269 0.000000
					}
				}
			}
		}
	}
	JOINT newVegas:Spine
	{
		OFFSET 0.000000 10.199997 -0.299500
		CHANNELS 3 Xrotation Yrotation Zrotation
		JOINT newVegas:Spine1
		{
			OFFSET 0.000000 11.900002 -1.516600
			CHANNELS 3 Xrotation Yrotation Zrotation
			JOINT newVegas:Spine2
			{
				OFFSET 0.000000 13.600006 -2.842500
				CHANNELS 3 Xrotation Yrotation Zrotation
				JOINT newVegas:Neck
				{
					OFFSET 0.000000 9.624100 -2.890100
					CHANNELS 3 Xrotation Yrotation Zrotation
					JOINT newVegas:Head
					{
						OFFSET 0.000000 14.068802 -1.351900
						CHANNELS 3 Xrotation Yrotation Zrotation
						JOINT newVegas:Hair_Back
						{
							OFFSET 0.000000 3.231903 -17.524799
							CHANNELS 3 Xrotation Yrotation Zrotation
							End Site
							{
								OFFSET 0.000000 19.849884 0.000000
							}
						}
						JOINT newVegas:Hair_Front
						{
							OFFSET 0.000000 31.260406 4.573800
							CHANNELS 3 Xrotation Yrotation Zrotation
							JOINT newVegas:Hair_Front1
							{
								OFFSET 0.000000 2.284103 11.993300
								CHANNELS 3 Xrotation Yrotation Zrotation
								JOINT newVegas:Hair_Front2
								{
									OFFSET 0.000000 2.284103 11.993300
									CHANNELS 3 Xrotation Yrotation Zrotation
									End Site
									{
										OFFSET 0.000000 12.208862 0.000000
									}
								}
							}
						}
						JOINT newVegas:Jowel
						{
							OFFSET 0.000000 -7.458206 6.864100
							CHANNELS 3 Xrotation Yrotation Zrotation
							End Site
							{
								OFFSET 0.000000 19.849884 0.000000
							}
						}
					}
				}
				JOINT newVegas:LeftShoulder
				{
					OFFSET 15.263000 10.923401 -0.547700
					CHANNELS 3 Xrotation Yrotation Zrotation
					JOINT newVegas:LeftArm
					{
						OFFSET 25.438599 -2.830597 -13.032500
						CHANNELS 3 Xrotation Yrotation Zrotation
						JOINT newVegas:LeftForeArm
						{
							OFFSET 29.960503 0.000000 0.000000
							CHANNELS 3 Xrotation Yrotation Zrotation
							JOINT newVegas:LeftHand
							{
								OFFSET 27.849251 0.000000 0.000000
								CHANNELS 3 Xrotation Yrotation Zrotation
								JOINT newVegas:LeftHandThumb1
								{
									OFFSET 4.487587 -3.305161 6.305391
									CHANNELS 3 Xrotation Yrotation Zrotation
									JOINT newVegas:LeftHandThumb2
									{
										OFFSET 5.480453 -3.164139 3.164143
										CHANNELS 3 Xrotation Yrotation Zrotation
										JOINT newVegas:LeftHandThumb3
										{
											OFFSET 5.159721 -2.978973 2.978967
											CHANNELS 3 Xrotation Yrotation Zrotation
											End Site
											{
												OFFSET 2.494507 5.926697 1.738678
											}
										}
									}
								}
								JOINT newVegas:LeftHandIndex1
								{
									OFFSET 18.578728 -0.527832 5.208049
									CHANNELS 3 Xrotation Yrotation Zrotation
									JOINT newVegas:LeftHandIndex2
									{
										OFFSET 3.192009 0.000000 0.000000
										CHANNELS 3 Xrotation Yrotation Zrotation
										JOINT newVegas:LeftHandIndex3
										{
											OFFSET 3.835129 0.000000 0.000000
											CHANNELS 3 Xrotation Yrotation Zrotation
											End Site
											{
												OFFSET -0.034599 3.816971 0.371180
											}
										}
									}
								}
								JOINT newVegas:LeftHandMiddle1
								{
									OFFSET 18.476105 0.000000 0.000000
									CHANNELS 3 Xrotation Yrotation Zrotation
									JOINT newVegas:LeftHandMiddle2
									{
										OFFSET 3.324875 0.000000 0.000000
										CHANNELS 3 Xrotation Yrotation Zrotation
										JOINT newVegas:LeftHandMiddle3
										{
											OFFSET 4.596550 0.000000 0.000000
											CHANNELS 3 Xrotation Yrotation Zrotation
											End Site
											{
												OFFSET 0.057701 4.578827 0.399218
											}
										}
									}
								}
								JOINT newVegas:LeftHandRing1
								{
									OFFSET 17.732719 0.121887 -4.201567
									CHANNELS 3 Xrotation Yrotation Zrotation
									JOINT newVegas:LeftHandRing2
									{
										OFFSET 2.733170 0.000000 0.000000
										CHANNELS 3 Xrotation Yrotation Zrotation
										JOINT newVegas:LeftHandRing3
										{
											OFFSET 3.178268 0.000000 0.000000
											CHANNELS 3 Xrotation Yrotation Zrotation
											End Site
											{
												OFFSET 0.119102 3.170624 0.185394
											}
										}
									}
								}
								JOINT newVegas:LeftHandPinky1
								{
									OFFSET 15.989624 -0.606689 -7.535461
									CHANNELS 3 Xrotation Yrotation Zrotation
									JOINT newVegas:LeftHandPinky2
									{
										OFFSET 2.538986 0.000000 0.000000
										CHANNELS 3 Xrotation Yrotation Zrotation
										JOINT newVegas:LeftHandPinky3
										{
											OFFSET 2.593102 0.000000 0.000000
											CHANNELS 3 Xrotation Yrotation Zrotation
											End Site
											{
												OFFSET -0.150902 2.584198 0.152708
											}
										}
									}
								}
							}
							JOINT newVegas:Left_Sleeve
							{
								OFFSET 0.267448 -0.649796 0.577675
								CHANNELS 3 Xrotation Yrotation Zrotation
								End Site
								{
									OFFSET 0.000000 15.991241 0.000000
								}
							}
							JOINT newVegas:Left_CapeC
							{
								OFFSET 15.715958 -8.608795 -6.935905
								CHANNELS 3 Xrotation Yrotation Zrotation
								JOINT newVegas:Left_CapeC1
								{
									OFFSET 0.000000 -8.688499 0.000000
									CHANNELS 3 Xrotation Yrotation Zrotation
									End Site
									{
										OFFSET 0.000000 8.688499 0.000000
									}
								}
							}
						}
						JOINT newVegas:Left_CapeB
						{
							OFFSET 26.118385 -8.608795 -7.079235
							CHANNELS 3 Xrotation Yrotation Zrotation
							JOINT newVegas:Left_CapeB1
							{
								OFFSET 0.000000 -8.688499 0.000000
								CHANNELS 3 Xrotation Yrotation Zrotation
								End Site
								{
									OFFSET 0.000000 8.688499 0.000000
								}
							}
						}
						JOINT newVegas:Left_CapeA
						{
							OFFSET 5.115639 -8.608795 -10.395809
							CHANNELS 3 Xrotation Yrotation Zrotation
							JOINT newVegas:Left_CapeA1
							{
								OFFSET 0.000000 -8.688499 0.000000
								CHANNELS 3 Xrotation Yrotation Zrotation
								End Site
								{
									OFFSET 0.000000 8.688499 0.000000
								}
							}
						}
					}
				}
				JOINT newVegas:RightShoulder
				{
					OFFSET -15.263000 10.923401 -0.547700
					CHANNELS 3 Xrotation Yrotation Zrotation
					JOINT newVegas:RightArm
					{
						OFFSET -25.438599 -2.830597 -13.032500
						CHANNELS 3 Xrotation Yrotation Zrotation
						JOINT newVegas:RightForeArm
						{
							OFFSET -29.960503 0.000000 0.000000
							CHANNELS 3 Xrotation Yrotation Zrotation
							JOINT newVegas:RightHand
							{
								OFFSET -27.849251 0.000000 0.000000
								CHANNELS 3 Xrotation Yrotation Zrotation
								JOINT newVegas:RightHandThumb1
								{
									OFFSET -4.487587 -3.305161 6.305391
									CHANNELS 3 Xrotation Yrotation Zrotation
									JOINT newVegas:RightHandThumb2
									{
										OFFSET -5.480453 -3.164139 3.164143
										CHANNELS 3 Xrotation Yrotation Zrotation
										JOINT newVegas:RightHandThumb3
										{
											OFFSET -5.159721 -2.978973 2.978967
											CHANNELS 3 Xrotation Yrotation Zrotation
											End Site
											{
												OFFSET -2.494507 5.926697 1.738678
											}
										}
									}
								}
								JOINT newVegas:RightHandIndex1
								{
									OFFSET -18.578728 -0.527832 5.208049
									CHANNELS 3 Xrotation Yrotation Zrotation
									JOINT newVegas:RightHandIndex2
									{
										OFFSET -3.192009 0.000000 0.000000
										CHANNELS 3 Xrotation Yrotation Zrotation
										JOINT newVegas:RightHandIndex3
										{
											OFFSET -3.835129 0.000000 0.000000
											CHANNELS 3 Xrotation Yrotation Zrotation
											End Site
											{
												OFFSET 0.034599 3.816971 0.371180
											}
										}
									}
								}
								JOINT newVegas:RightHandMiddle1
								{
									OFFSET -18.476105 0.000000 0.000000
									CHANNELS 3 Xrotation Yrotation Zrotation
									JOINT newVegas:RightHandMiddle2
									{
										OFFSET -3.324875 0.000000 0.000000
										CHANNELS 3 Xrotation Yrotation Zrotation
										JOINT newVegas:RightHandMiddle3
										{
											OFFSET -4.596550 0.000000 0.000000
											CHANNELS 3 Xrotation Yrotation Zrotation
											End Site
											{
												OFFSET -0.057701 4.578827 0.399218
											}
										}
									}
								}
								JOINT newVegas:RightHandRing1
								{
									OFFSET -17.732719 0.121887 -4.201567
									CHANNELS 3 Xrotation Yrotation Zrotation
									JOINT newVegas:RightHandRing2
									{
										OFFSET -2.733170 0.000000 0.000000
										CHANNELS 3 Xrotation Yrotation Zrotation
										JOINT newVegas:RightHandRing3
										{
											OFFSET -3.178268 0.000000 0.000000
											CHANNELS 3 Xrotation Yrotation Zrotation
											End Site
											{
												OFFSET -0.119102 3.170624 0.185394
											}
										}
									}
								}
								JOINT newVegas:RightHandPinky1
								{
									OFFSET -15.989624 -0.606689 -7.535461
									CHANNELS 3 Xrotation Yrotation Zrotation
									JOINT newVegas:RightHandPinky2
									{
										OFFSET -2.538986 0.000000 0.000000
										CHANNELS 3 Xrotation Yrotation Zrotation
										JOINT newVegas:RightHandPinky3
										{
											OFFSET -2.593102 0.000000 0.000000
											CHANNELS 3 Xrotation Yrotation Zrotation
											End Site
											{
												OFFSET 0.150902 2.584198 0.152708
											}
										}
									}
								}
							}
							JOINT newVegas:Right_CapeC
							{
								OFFSET -15.715958 -8.608795 -6.935905
								CHANNELS 3 Xrotation Yrotation Zrotation
								JOINT newVegas:Right_CapeC1
								{
									OFFSET 0.000000 -8.688499 0.000000
									CHANNELS 3 Xrotation Yrotation Zrotation
									End Site
									{
										OFFSET 0.000000 8.688499 0.000000
									}
								}
							}
							JOINT newVegas:Right_Sleeve
							{
								OFFSET -0.267448 -0.649994 0.577675
								CHANNELS 3 Xrotation Yrotation Zrotation
								End Site
								{
									OFFSET 0.000000 15.991302 0.000000
								}
							}
						}
						JOINT newVegas:Right_CapeA
						{
							OFFSET -5.115540 -8.608795 -10.395824
							CHANNELS 3 Xrotation Yrotation Zrotation
							JOINT newVegas:Right_CapeA1
							{
								OFFSET 0.000000 -8.688499 0.000000
								CHANNELS 3 Xrotation Yrotation Zrotation
								End Site
								{
									OFFSET 0.000000 8.688499 0.000000
								}
							}
						}
						JOINT newVegas:Right_CapeB
						{
							OFFSET -26.118187 -8.608795 -7.079266
							CHANNELS 3 Xrotation Yrotation Zrotation
							JOINT newVegas:Right_CapeB1
							{
								OFFSET 0.000000 -8.688499 0.000000
								CHANNELS 3 Xrotation Yrotation Zrotation
								End Site
								{
									OFFSET 0.000000 8.688499 0.000000
								}
							}
						}
					}
				}
				JOINT newVegas:Left_Collar
				{
					OFFSET 18.625099 8.655502 8.828100
					CHANNELS 3 Xrotation Yrotation Zrotation
					JOINT newVegas:Left_Collar1
					{
						OFFSET 14.783401 10.540405 -1.259500
						CHANNELS 3 Xrotation Yrotation Zrotation
						End Site
						{
							OFFSET 0.000000 18.199875 0.000000
						}
					}
				}
				JOINT newVegas:Collar_Back
				{
					OFFSET 0.000000 15.630707 -20.132601
					CHANNELS 3 Xrotation Yrotation Zrotation
					End Site
					{
						OFFSET 0.000000 22.523010 0.000000
					}
				}
				JOINT newVegas:Left_Peck
				{
					OFFSET 17.239599 -5.132599 25.482599
					CHANNELS 3 Xrotation Yrotation Zrotation
					End Site
					{
						OFFSET 0.000000 22.523010 0.000000
					}
				}
				JOINT newVegas:Right_Peck
				{
					OFFSET -17.239599 -5.132202 25.482599
					CHANNELS 3 Xrotation Yrotation Zrotation
					End Site
					{
						OFFSET 0.000000 22.523010 0.000000
					}
				}
				JOINT newVegas:Right_Collar
				{
					OFFSET -18.625099 8.655792 8.828100
					CHANNELS 3 Xrotation Yrotation Zrotation
					JOINT newVegas:Right_Collar1
					{
						OFFSET -14.783401 10.539993 -1.259500
						CHANNELS 3 Xrotation Yrotation Zrotation
						End Site
						{
							OFFSET 0.000000 18.199631 0.000000
						}
					}
				}
			}
		}
		JOINT newVegas:Belly
		{
			OFFSET 0.000000 -6.540398 9.014299
			CHANNELS 3 Xrotation Yrotation Zrotation
			End Site
			{
				OFFSET 0.000000 11.566666 0.000000
			}
		}
	}
	JOINT newVegas:ElvisFacialAnim_Joint
	{
		OFFSET 1.000000 -95.330101 -8.825800
		CHANNELS 3 Xrotation Yrotation Zrotation
		End Site
		{
			OFFSET 0.000000 35.315800 0.000000
		}
	}
}
MOTION
Frames: 4
Frame Time: 0.016667
-3.916322 83.273758 2.332649 3.004780 -58.203232 6.441633 -0.000000 -0.000001 -0.000000 -38.301751 6.319709 29.636228 47.032826 -9.812353 -10.643530 -10.045132 -1.887120 -11.913889 -0.000000 0.000001 -0.000000 -0.000000 -0.000000 0.000001 -34.548367 -3.820582 -30.692220 55.036093 4.454433 -7.825976 -22.925311 0.235330 25.816708 0.000000 0.000001 -0.000000 0.000001 -0.000000 0.000000 11.191383 0.081138 -2.660832 8.434599 0.027694 -5.592319 8.457029 0.027845 -5.591854 -3.775902 5.323433 1.581292 -3.775895 5.323423 1.581294 0.000001 -0.000000 -0.000000 -3.775900 5.323439 1.581292 -3.775901 5.323433 1.581291 0.000001 0.000001 0.000000 0.000001 -0.000000 0.000001 -6.221668 -11.503856 -4.023824 -23.062123 9.568603 -36.639628 0.046110 -43.169261 -0.011183 22.743707 -5.685813 15.979245 -1.064229 -7.954925 8.490106 2.373402 19.986079 -2.038310 0.000001 0.000001 -0.000006 13.340899 -1.006658 10.682309 -0.167595 0.303393 -31.105655 -0.000002 0.000001 -0.000001 8.495450 -0.329557 -0.915266 0.231500 0.661240 -29.901878 -0.000000 0.000001 0.000002 6.111764 3.150897 -16.210926 0.047074 0.322425 -30.125454 0.000000 -0.000001 -0.000001 -5.636030 7.709867 -13.878576 0.224359 0.276572 -46.588338 0.000000 -0.000002 -0.000001 -0.000001 0.000001 0.000003 -0.000001 0.000001 0.000003 -0.000001 0.000000 0.000003 -0.000001 0.000003 -0.000000 -0.000000 0.000002 -0.000003 -0.000001 0.000003 -0.000000 -0.000002 0.000003 0.000001 -5.488240 10.658287 2.466534 -41.473803 -26.755536 30.078961 24.955408 111.863165 -23.308372 -8.702486 12.422925 -9.802065 0.264995 10.061081 -10.888478 1.383781 -17.412876 3.016282 0.000001 -0.000004 -0.000001 19.443587 11.174399 -13.340171 -0.118650 -0.322728 18.035594 0.000001 -0.000000 0.000003 4.320444 2.436983 -4.811718 0.349110 -0.461237 26.890327 0.000000 -0.000002 -0.000001 -7.005631 -10.695135 5.719871 0.111871 -0.089215 26.155897 -0.000004 -0.000001 -0.000002 -19.433563 -20.238209 5.987859 0.223787 -0.085763 36.844585 -0.000002 0.000003 0.000002 -0.000001 0.000005 0.000000 -0.000001 0.000005 -0.000001 -0.000003 0.000005 -0.000000 -0.000000 -0.000001 0.000000 -0.000000 0.000000 -0.000001 -0.000000 -0.000001 0.000000 -0.000000 -0.000000 0.000000 0.000001 0.000001 0.000001 0.000001 0.000001 0.000001 0.000001 0.000001 0.000001 0.000001 0.000001 0.000001 0.000001 0.000001 0.000001 0.000001 0.000001 0.000001 0.000001 0.000001 0.000001 -0.000000 0.000001 -0.000000 -0.000000 -0.000001 -0.000000 
-4.060534 83.274994 2.374369 1.342234 -58.477785 4.800572 -0.000000 0.000001 -0.000000 -37.422955 6.251341 30.159161 47.508716 -10.075898 -10.746652 -10.548175 -1.822958 -11.939141 0.000000 -0.000003 0.000000 -0.000002 0.000000 0.000000 -33.710286 -4.211405 -30.634536 55.111311 4.922916 -7.808499 -23.122718 0.253187 25.582846 -0.000000 -0.000000 -0.000000 0.000001 0.000000 -0.000002 10.938434 -0.105047 -2.440395 7.815271 -0.326008 -5.179808 7.841708 -0.289958 -5.218251 -2.905278 5.233679 1.619017 -2.905275 5.233661 1.619017 0.000002 0.000000 0.000001 -2.905350 5.233685 1.619020 -2.905205 5.233656 1.619010 -0.000000 -0.000001 0.000001 0.000002 0.000000 0.000001 -6.685499 -11.300286 -5.194095 -20.846111 10.084639 -34.890881 4.501467 -44.384540 0.854206 12.301412 -3.504537 18.746812 -0.817777 -7.008207 8.688590 2.795481 20.865765 -1.954407 -0.000000 -0.000002 -0.000003 13.346472 -1.013365 8.858989 -0.165553 0.304592 -32.928998 0.000001 0.000001 0.000000 8.466206 -0.311463 -2.738553 0.241804 0.667290 -31.725272 -0.000001 -0.000000 0.000002 6.092974 3.171980 -18.033079 0.048039 0.334600 -31.948828 -0.000001 -0.000001 0.000001 -5.643677 7.720632 -15.700925 0.231595 0.282274 -48.411739 0.000000 0.000004 -0.000001 -0.000002 0.000001 0.000001 -0.000002 0.000001 0.000001 -0.000002 0.000000 0.000001 -0.000000 0.000003 -0.000001 0.000000 0.000002 -0.000002 -0.000000 0.000003 -0.000001 -0.000001 0.000003 -0.000000 -5.634358 10.125341 2.634044 -41.005614 -24.756278 29.332183 24.443717 110.510343 -22.235792 -0.953745 8.719441 -11.067482 0.356419 9.641527 -10.977429 1.570906 -17.798302 2.977747 -0.000000 0.000002 -0.000002 19.447948 11.177498 -10.409347 -0.115835 -0.325250 20.967274 -0.000000 0.000000 0.000000 4.273853 2.408364 -1.878586 0.365311 -0.471707 29.822091 -0.000001 0.000002 0.000001 -7.029073 -10.720218 8.646961 0.112305 -0.108830 29.087474 -0.000000 -0.000001 -0.000004 -19.442332 -20.249284 8.916435 0.233705 -0.096679 39.776262 -0.000003 0.000001 0.000001 0.000000 0.000002 0.000001 -0.000001 -0.000002 0.000001 0.000000 0.000002 0.000001 0.000001 0.000001 -0.000001 0.000001 0.000002 -0.000001 0.000001 0.000001 -0.000001 0.000001 0.000002 0.000001 0.000002 -0.000001 0.000001 0.000002 -0.000001 0.000001 0.000002 -0.000001 0.000001 0.000002 -0.000001 0.000001 0.000002 -0.000001 0.000001 0.000002 -0.000001 0.000001 0.000002 -0.000001 0.000001 0.000000 0.000002 -0.000000 -0.000000 0.000001 -0.000000 
-4.296850 83.242386 2.575123 -0.235556 -58.856485 3.222455 0.000000 -0.000001 0.000000 -36.453109 6.183943 30.696421 48.249945 -10.292523 -10.883858 -11.415910 -1.730035 -11.950234 0.000000 0.000000 -0.000000 0.000001 0.000002 -0.000000 -32.834219 -4.571808 -30.673751 55.122878 5.548860 -7.774336 -23.369870 0.248146 25.397061 0.000000 0.000001 -0.000000 0.000003 0.000000 -0.000000 10.331078 -0.513731 -1.883554 6.356267 -1.115938 -4.166069 6.388321 -1.004151 -4.289062 -0.940376 5.016487 1.729113 -0.940374 5.016466 1.729119 -0.000000 0.000001 -0.000000 -0.940303 5.016497 1.729111 -0.940377 5.016493 1.729111 -0.000003 0.000000 -0.000000 -0.000000 0.000001 -0.000000 -7.444595 -11.224858 -7.938095 -17.825469 12.833960 -32.921181 9.087167 -48.058321 1.764682 2.794004 0.641289 21.567470 -0.555599 -5.986843 8.898264 3.257370 21.811559 -1.869779 0.000002 -0.000001 -0.000006 13.352264 -1.020805 6.893187 -0.163308 0.305691 -34.894969 0.000000 0.000000 -0.000002 8.435343 -0.291018 -4.704282 0.253166 0.673416 -33.691346 0.000002 0.000002 -0.000002 6.073464 3.195268 -19.997744 0.049529 0.347691 -33.914703 -0.000001 -0.000001 0.000001 -5.651518 7.732454 -17.665755 0.239493 0.288147 -50.377730 0.000000 0.000000 0.000000 -0.000001 0.000000 0.000002 -0.000001 0.000000 0.000002 -0.000001 -0.000000 0.000002 -0.000000 -0.000003 0.000003 0.000000 -0.000002 0.000000 -0.000000 -0.000003 0.000003 -0.000001 -0.000002 0.000003 -5.983466 8.827082 3.075376 -38.745877 -19.254843 28.392009 20.208694 109.867506 -16.299900 7.140808 4.709844 -11.433872 0.455347 9.184278 -11.073773 1.772478 -18.218553 2.932596 0.000000 0.000000 0.000001 19.452507 11.181083 -7.215358 -0.112653 -0.327760 24.162115 0.000000 -0.000004 0.000001 4.224822 2.374519 1.317759 0.383445 -0.482134 33.017025 0.000000 0.000005 0.000000 -7.053116 -10.748765 11.837141 0.113821 -0.130201 32.282250 0.000003 0.000001 0.000000 -19.451209 -20.261813 12.108197 0.245131 -0.108059 42.971076 0.000000 0.000003 0.000001 0.000001 0.000000 -0.000000 0.000001 -0.000001 0.000002 0.000001 -0.000000 -0.000000 -0.000001 0.000003 0.000001 -0.000001 0.000003 0.000001 -0.000001 0.000003 0.000001 -0.000001 0.000003 0.000002 0.000003 0.000001 -0.000000 0.000003 0.000001 -0.000000 0.000003 0.000001 -0.000000 0.000003 0.000001 -0.000000 0.000003 0.000001 -0.000000 0.000003 0.000001 -0.000000 0.000003 0.000001 -0.000000 0.000001 -0.000004 0.000001 0.000000 -0.000001 0.000000 
-4.802337 83.218819 3.032257 -1.831375 -58.798927 1.703653 -0.000000 -0.000001 0.000000 -35.359421 6.211886 31.074834 48.897300 -10.875155 -11.051662 -12.465806 -1.642943 -11.802806 -0.000000 -0.000001 0.000000 0.000000 -0.000003 0.000000 -31.257794 -5.152492 -30.963840 54.905975 5.925412 -7.738258 -24.018360 0.066549 25.503745 0.000000 -0.000001 -0.000000 0.000001 0.000002 -0.000002 9.558412 -0.976572 -1.145770 4.553881 -2.005590 -2.831331 4.585544 -1.818066 -3.044924 1.320782 4.720352 1.900784 1.320772 4.720351 1.900784 -0.000000 -0.000002 0.000000 1.320774 4.720345 1.900784 1.320779 4.720368 1.900779 -0.000001 -0.000000 0.000003 -0.000000 -0.000002 -0.000000 -8.310468 -11.099488 -11.307726 -14.786342 15.433458 -31.237184 14.384669 -52.081388 3.335654 -5.543240 5.381411 24.045269 -0.295223 -4.957894 9.104971 3.727172 22.762615 -1.791827 -0.000000 -0.000000 -0.000003 13.357838 -1.028549 4.914081 -0.161036 0.306761 -36.874146 -0.000000 -0.000001 0.000002 8.404997 -0.269329 -6.683302 0.264757 0.679239 -35.670632 -0.000000 0.000001 0.000001 6.054693 3.219360 -21.975638 0.051453 0.360813 -35.893843 -0.000000 0.000003 -0.000001 -5.658987 7.744610 -19.643916 0.247709 0.293850 -52.356918 -0.000001 -0.000002 -0.000000 0.000000 -0.000002 -0.000000 0.000000 -0.000002 -0.000000 -0.000000 -0.000003 -0.000000 0.000001 -0.000001 0.000002 0.000001 -0.000001 0.000000 0.000001 -0.000001 0.000002 -0.000000 -0.000000 0.000001 -6.427617 7.045152 3.807187 -35.653803 -12.738065 26.064688 13.821579 110.918454 -7.469459 13.357299 1.174508 -10.753080 0.549456 8.746517 -11.165466 1.973938 -18.615990 2.888146 -0.000000 0.000002 -0.000002 19.456653 11.184769 -4.158319 -0.109479 -0.330065 27.220023 -0.000002 0.000002 -0.000000 4.179709 2.339674 4.376942 0.401396 -0.491186 36.075003 0.000000 -0.000001 -0.000000 -7.074577 -10.777312 14.890798 0.116405 -0.150526 35.340031 -0.000000 0.000002 0.000000 -19.459007 -20.274194 15.163314 0.256655 -0.118254 46.028945 0.000001 -0.000000 -0.000000 -0.000000 -0.000000 0.000001 -0.000000 -0.000002 -0.000001 -0.000000 -0.000000 0.000001 -0.000002 0.000001 -0.000002 -0.000002 0.000002 -0.000003 -0.000002 0.000001 -0.000002 -0.000002 0.000002 -0.000002 0.000000 -0.000001 0.000000 0.000000 -0.000001 0.000000 0.000000 -0.000001 0.000000 0.000000 -0.000001 0.000000 0.000000 -0.000001 0.000000 0.000000 -0.000001 0.000000 0.000000 -0.000001 0.000000 -0.000000 0.000003 -0.000000 -0.000000 -0.000001 0.000000 
